<mxfile host="65bd71144e">
    <diagram id="PIStt2pYxE5VBWSliA-n" name="Страница 1">
        <mxGraphModel dx="679" dy="418" grid="1" gridSize="10" guides="1" tooltips="1" connect="1" arrows="1" fold="1" page="1" pageScale="1" pageWidth="827" pageHeight="1169" math="0" shadow="0">
            <root>
                <mxCell id="0"/>
                <mxCell id="1" parent="0"/>
                <mxCell id="4" value="" style="edgeStyle=none;html=1;" edge="1" parent="1" source="2" target="3">
                    <mxGeometry relative="1" as="geometry"/>
                </mxCell>
                <mxCell id="2" value="" style="ellipse;whiteSpace=wrap;html=1;" vertex="1" parent="1">
                    <mxGeometry x="354" y="30" width="120" height="80" as="geometry"/>
                </mxCell>
                <mxCell id="6" value="" style="edgeStyle=none;html=1;" edge="1" parent="1" source="3" target="5">
                    <mxGeometry relative="1" as="geometry"/>
                </mxCell>
                <mxCell id="3" value="new_array[]&lt;br&gt;result_array[]&lt;br&gt;new_array_length&lt;br&gt;result_array_length&lt;br&gt;index = 0&lt;br&gt;count = 0&lt;br&gt;text_size = 3" style="rounded=0;whiteSpace=wrap;html=1;" vertex="1" parent="1">
                    <mxGeometry x="354" y="150" width="120" height="110" as="geometry"/>
                </mxCell>
                <mxCell id="8" value="yes" style="edgeStyle=none;html=1;" edge="1" parent="1" source="5" target="7">
                    <mxGeometry relative="1" as="geometry"/>
                </mxCell>
                <mxCell id="23" value="" style="edgeStyle=none;html=1;" edge="1" parent="1" source="5" target="22">
                    <mxGeometry relative="1" as="geometry"/>
                </mxCell>
                <mxCell id="5" value="index &amp;lt; new_array_length" style="rhombus;whiteSpace=wrap;html=1;rounded=0;" vertex="1" parent="1">
                    <mxGeometry x="300" y="280" width="230" height="70" as="geometry"/>
                </mxCell>
                <mxCell id="10" value="no" style="edgeStyle=none;html=1;exitX=1;exitY=0.5;exitDx=0;exitDy=0;entryX=1;entryY=0.5;entryDx=0;entryDy=0;" edge="1" parent="1" source="7" target="18">
                    <mxGeometry relative="1" as="geometry">
                        <mxPoint x="650" y="448" as="targetPoint"/>
                        <Array as="points">
                            <mxPoint x="680" y="415"/>
                            <mxPoint x="680" y="630"/>
                        </Array>
                    </mxGeometry>
                </mxCell>
                <mxCell id="12" value="" style="edgeStyle=none;html=1;" edge="1" parent="1" source="7" target="11">
                    <mxGeometry relative="1" as="geometry"/>
                </mxCell>
                <mxCell id="15" value="yes" style="edgeLabel;html=1;align=center;verticalAlign=middle;resizable=0;points=[];" vertex="1" connectable="0" parent="12">
                    <mxGeometry x="-0.2584" y="-2" relative="1" as="geometry">
                        <mxPoint as="offset"/>
                    </mxGeometry>
                </mxCell>
                <mxCell id="7" value="new_array[ index ].Length &amp;lt;= text_size" style="rhombus;whiteSpace=wrap;html=1;rounded=0;" vertex="1" parent="1">
                    <mxGeometry x="270" y="380" width="290" height="70" as="geometry"/>
                </mxCell>
                <mxCell id="19" value="" style="edgeStyle=none;html=1;" edge="1" parent="1" source="11" target="18">
                    <mxGeometry relative="1" as="geometry"/>
                </mxCell>
                <mxCell id="11" value="&lt;span&gt;result_array[ count ]&amp;nbsp; =&amp;nbsp;&lt;/span&gt;new_array[ index ]&lt;br&gt;count = count + 1&amp;nbsp;" style="rounded=0;whiteSpace=wrap;html=1;" vertex="1" parent="1">
                    <mxGeometry x="282" y="500" width="264" height="60" as="geometry"/>
                </mxCell>
                <mxCell id="21" style="edgeStyle=none;html=1;entryX=0;entryY=0.5;entryDx=0;entryDy=0;" edge="1" parent="1" source="18" target="5">
                    <mxGeometry relative="1" as="geometry">
                        <mxPoint x="360" y="360" as="targetPoint"/>
                        <Array as="points">
                            <mxPoint x="210" y="630"/>
                            <mxPoint x="210" y="315"/>
                        </Array>
                    </mxGeometry>
                </mxCell>
                <mxCell id="18" value="index = index + 1" style="whiteSpace=wrap;html=1;rounded=0;" vertex="1" parent="1">
                    <mxGeometry x="282" y="600" width="264" height="60" as="geometry"/>
                </mxCell>
                <mxCell id="22" value="result_array" style="whiteSpace=wrap;html=1;rounded=0;" vertex="1" parent="1">
                    <mxGeometry x="580" y="285" width="120" height="60" as="geometry"/>
                </mxCell>
            </root>
        </mxGraphModel>
    </diagram>
</mxfile>